# xmcd
#
# Track frame offsets: 
#        150
#        4433
#        50667
#        72988
#        108933
#        136862
#        170748
#        203834
#        232446
#
# Disc length: 3624 seconds
#
# Revision: 1
# Processed by: cddbd v1.5PL3 Copyright (c) Steve Scherf et al.
# Submitted via: ExactAudioCopy v0.95a5
#
DISCID=870e2609
DTITLE=Les Gypsies de Petion-Ville - Plus de 20 ans apres
DYEAR=2000
DGENRE=Kompa
TTITLE0=Intro
TTITLE1=La Tulipe (Ti Lulupe)
TTITLE2=Cassa
TTITLE3=Patience
TTITLE4=Reve
TTITLE5=Courage
TTITLE6=Gagotte
TTITLE7=Reproche
TTITLE8=Espoir
EXTD=
EXTT0=
EXTT1=
EXTT2=
EXTT3=
EXTT4=
EXTT5=
EXTT6=
EXTT7=
EXTT8=
PLAYORDER=
